<svg id="SvgjsSvg1040" width="288" height="288" xmlns="http://www.w3.org/2000/svg" version="1.1" xmlns:xlink="http://www.w3.org/1999/xlink" xmlns:svgjs="http://svgjs.com/svgjs"><defs id="SvgjsDefs1041"></defs><g id="SvgjsG1042" transform="matrix(1,0,0,1,0,0)"><svg xmlns="http://www.w3.org/2000/svg" enable-background="new 0 0 32 32" viewBox="0 0 32 32" width="288" height="288"><path d="M15.01001,0.94c-0.28003-0.28003-0.66003-0.44-1.06-0.44H13.94L2.09998,0.62C1.28998,0.63,0.63,1.28998,0.62,2.09998L0.5,13.94c0,0.39996,0.15002,0.78998,0.44,1.07001l14.79999,14.81C16.85999,30.94,18.34003,31.5,19.81,31.5c1.47003,0,2.95001-0.56,4.07001-1.67999l5.94-5.94c2.23999-2.25,2.23999-5.89001,0-8.14001L15.01001,0.94z M6.69,6.69c0.95001-0.96002,2.51001-0.96002,3.46997,0c0.96002,0.95001,0.96002,2.51001,0,3.46997C9.20001,11.12,7.64001,11.12,6.69,10.15997C5.72998,9.20001,5.72998,7.64001,6.69,6.69z" fill="#52cc99" class="color000 svgShape"></path></svg></g></svg>