<svg id="SvgjsSvg1092" width="288" height="288" xmlns="http://www.w3.org/2000/svg" version="1.1" xmlns:xlink="http://www.w3.org/1999/xlink" xmlns:svgjs="http://svgjs.com/svgjs"><defs id="SvgjsDefs1093"></defs><g id="SvgjsG1094" transform="matrix(1,0,0,1,0,0)"><svg xmlns="http://www.w3.org/2000/svg" enable-background="new 0 0 512 512" viewBox="0 0 512 512" width="288" height="288"><path fill="#d49655" fill-rule="evenodd" d="M424.767,152.672H306.372l88.794-51.266L424.767,152.672L424.767,152.672z M213.373,152.672l158.541-91.537
		l-11.248-19.497c-1.771-3.069-4.662-5.258-8.083-6.172c-3.412-0.911-7.018-0.462-10.079,1.306l-200.739,115.9H213.373
		L213.373,152.672z M435.642,160.674c22.807,0,41.359,18.552,41.359,41.359v62.11H348.88c-30.152,0-54.69,24.539-54.69,54.69
		c0,30.158,24.531,54.7,54.69,54.7h128.121v62.115c0,22.805-18.555,41.355-41.359,41.355H76.363
		c-22.807,0-41.359-18.547-41.359-41.355V202.033c0-22.81,18.549-41.359,41.359-41.359H435.642z" clip-rule="evenodd" class="color9bc9ff svgShape"></path><path fill="#d49655" fill-rule="evenodd" d="M357.621,318.833c0,4.821-3.92,8.75-8.741,8.75c-4.821,0-8.736-3.929-8.736-8.75
		c0-4.821,3.915-8.736,8.736-8.736C353.701,310.097,357.621,314.012,357.621,318.833L357.621,318.833z M324.143,318.833
		c0,13.651,11.099,24.751,24.737,24.751c13.642,0,24.741-11.099,24.741-24.751c0-13.637-11.099-24.736-24.741-24.736
		C335.243,294.097,324.143,305.196,324.143,318.833L324.143,318.833z M473.001,276.148H348.88c-23.538,0-42.69,19.147-42.69,42.685
		c0,23.543,19.151,42.704,42.69,42.704h124.121V276.148L473.001,276.148z M435.642,473.002c20.6,0,37.359-16.76,37.359-37.355
		v-58.115H348.88c-32.359,0-58.69-26.326-58.69-58.7c0-32.359,26.331-58.69,58.69-58.69h124.121v-58.11
		c0-20.6-16.76-37.36-37.359-37.36H76.363c-20.604,0-37.36,16.76-37.36,37.36v233.615c0,20.595,16.755,37.355,37.36,37.355H435.642
		L435.642,473.002z M344.502,40.236c2.142-1.231,4.637-1.552,7.048-0.906c2.41,0.641,4.41,2.174,5.651,4.307l9.25,16.033
		l-154.15,89.002h-55.61L344.502,40.236L344.502,40.236z M393.702,106.87l-72.403,41.803h96.54L393.702,106.87L393.702,106.87z
		 M244.302,148.673h45.001l96.399-55.662l-11.25-19.482L244.302,148.673L244.302,148.673z M436.321,148.692L371.05,35.637
		c-6.967-12.076-22.468-16.227-34.548-9.26L124.69,148.673H76.363c-29.421,0-53.365,23.935-53.365,53.36v233.615
		c0,29.416,23.944,53.355,53.365,53.355h359.279c29.421,0,53.36-23.939,53.36-53.355V202.033
		C489.002,172.839,465.43,149.06,436.321,148.692z" clip-rule="evenodd" class="color57a4ff svgShape"></path></svg></g></svg>